<?xml version="1.0" encoding="UTF-8" standalone="no"?>
<!DOCTYPE svg PUBLIC "-//W3C//DTD SVG 1.1//EN"
 "http://www.w3.org/Graphics/SVG/1.1/DTD/svg11.dtd">
<!-- Generated by graphviz version 2.38.0 (20140413.2041)
 -->
<!-- Title: %3 Pages: 1 -->
<svg width="9113pt" height="404pt"
 viewBox="0.00 0.00 9113.23 404.00" xmlns="http://www.w3.org/2000/svg" xmlns:xlink="http://www.w3.org/1999/xlink">
<g id="graph0" class="graph" transform="scale(1 1) rotate(0) translate(4 400)">
<title>%3</title>
<polygon fill="white" stroke="none" points="-4,4 -4,-400 9109.23,-400 9109.23,4 -4,4"/>
<!-- [root] oci_core_subnet.subnet1 -->
<g id="node1" class="node"><title>[root] oci_core_subnet.subnet1</title>
<polygon fill="none" stroke="black" points="1173.33,-180 978.335,-180 978.335,-144 1173.33,-144 1173.33,-180"/>
<text text-anchor="middle" x="1075.83" y="-158.3" font-family="Times,serif" font-size="14.00">oci_core_subnet.subnet1</text>
</g>
<!-- [root] oci_core_vcn.ld_vcn -->
<g id="node2" class="node"><title>[root] oci_core_vcn.ld_vcn</title>
<polygon fill="none" stroke="black" points="695.335,-108 534.335,-108 534.335,-72 695.335,-72 695.335,-108"/>
<text text-anchor="middle" x="614.835" y="-86.3" font-family="Times,serif" font-size="14.00">oci_core_vcn.ld_vcn</text>
</g>
<!-- [root] oci_core_subnet.subnet1&#45;&gt;[root] oci_core_vcn.ld_vcn -->
<g id="edge21" class="edge"><title>[root] oci_core_subnet.subnet1&#45;&gt;[root] oci_core_vcn.ld_vcn</title>
<path fill="none" stroke="black" d="M978.01,-148.242C905.585,-138.512 804.259,-124.305 705.882,-108.135"/>
<polygon fill="black" stroke="black" points="706.194,-104.64 695.758,-106.462 705.053,-111.546 706.194,-104.64"/>
</g>
<!-- [root] var.subnet_availability_domain -->
<g id="node25" class="node"><title>[root] var.subnet_availability_domain</title>
<ellipse fill="none" stroke="black" cx="896.835" cy="-90" rx="183.068" ry="18"/>
<text text-anchor="middle" x="896.835" y="-86.3" font-family="Times,serif" font-size="14.00">[root] var.subnet_availability_domain</text>
</g>
<!-- [root] oci_core_subnet.subnet1&#45;&gt;[root] var.subnet_availability_domain -->
<g id="edge22" class="edge"><title>[root] oci_core_subnet.subnet1&#45;&gt;[root] var.subnet_availability_domain</title>
<path fill="none" stroke="black" d="M1032.05,-143.876C1006.88,-134.035 975.125,-121.616 948.713,-111.287"/>
<polygon fill="black" stroke="black" points="949.834,-107.968 939.246,-107.585 947.284,-114.487 949.834,-107.968"/>
</g>
<!-- [root] var.subnet_display_name -->
<g id="node26" class="node"><title>[root] var.subnet_display_name</title>
<ellipse fill="none" stroke="black" cx="1254.83" cy="-90" rx="156.772" ry="18"/>
<text text-anchor="middle" x="1254.83" y="-86.3" font-family="Times,serif" font-size="14.00">[root] var.subnet_display_name</text>
</g>
<!-- [root] oci_core_subnet.subnet1&#45;&gt;[root] var.subnet_display_name -->
<g id="edge23" class="edge"><title>[root] oci_core_subnet.subnet1&#45;&gt;[root] var.subnet_display_name</title>
<path fill="none" stroke="black" d="M1119.62,-143.876C1144.88,-133.999 1176.78,-121.525 1203.25,-111.174"/>
<polygon fill="black" stroke="black" points="1204.69,-114.367 1212.73,-107.465 1202.14,-107.848 1204.69,-114.367"/>
</g>
<!-- [root] var.subnet_dns_label -->
<g id="node27" class="node"><title>[root] var.subnet_dns_label</title>
<ellipse fill="none" stroke="black" cx="1566.83" cy="-90" rx="137.276" ry="18"/>
<text text-anchor="middle" x="1566.83" y="-86.3" font-family="Times,serif" font-size="14.00">[root] var.subnet_dns_label</text>
</g>
<!-- [root] oci_core_subnet.subnet1&#45;&gt;[root] var.subnet_dns_label -->
<g id="edge24" class="edge"><title>[root] oci_core_subnet.subnet1&#45;&gt;[root] var.subnet_dns_label</title>
<path fill="none" stroke="black" d="M1173.43,-145.264C1176.26,-144.834 1179.07,-144.412 1181.83,-144 1277,-129.821 1385.6,-114.993 1463.14,-104.639"/>
<polygon fill="black" stroke="black" points="1463.95,-108.063 1473.4,-103.272 1463.02,-101.125 1463.95,-108.063"/>
</g>
<!-- [root] provider.oci -->
<g id="node4" class="node"><title>[root] provider.oci</title>
<polygon fill="none" stroke="black" points="92.8349,-36 0.164824,-18 92.8349,-3.55271e-15 185.505,-18 92.8349,-36"/>
<text text-anchor="middle" x="92.8349" y="-14.3" font-family="Times,serif" font-size="14.00">provider.oci</text>
</g>
<!-- [root] oci_core_vcn.ld_vcn&#45;&gt;[root] provider.oci -->
<g id="edge25" class="edge"><title>[root] oci_core_vcn.ld_vcn&#45;&gt;[root] provider.oci</title>
<path fill="none" stroke="black" d="M534.189,-79.7848C449.539,-69.887 312.641,-53.2433 194.835,-36 179.969,-33.8241 163.922,-31.2541 149.055,-28.7802"/>
<polygon fill="black" stroke="black" points="149.422,-25.2928 138.98,-27.0889 148.263,-32.1962 149.422,-25.2928"/>
</g>
<!-- [root] var.compartment_id -->
<g id="node28" class="node"><title>[root] var.compartment_id</title>
<ellipse fill="none" stroke="black" cx="336.835" cy="-18" rx="133.477" ry="18"/>
<text text-anchor="middle" x="336.835" y="-14.3" font-family="Times,serif" font-size="14.00">[root] var.compartment_id</text>
</g>
<!-- [root] oci_core_vcn.ld_vcn&#45;&gt;[root] var.compartment_id -->
<g id="edge26" class="edge"><title>[root] oci_core_vcn.ld_vcn&#45;&gt;[root] var.compartment_id</title>
<path fill="none" stroke="black" d="M547.184,-71.9656C504.54,-61.2278 449.603,-47.3949 406.567,-36.5585"/>
<polygon fill="black" stroke="black" points="407.29,-33.1314 396.738,-34.0836 405.581,-39.9195 407.29,-33.1314"/>
</g>
<!-- [root] var.vcn_cidr_block -->
<g id="node29" class="node"><title>[root] var.vcn_cidr_block</title>
<ellipse fill="none" stroke="black" cx="614.835" cy="-18" rx="126.978" ry="18"/>
<text text-anchor="middle" x="614.835" y="-14.3" font-family="Times,serif" font-size="14.00">[root] var.vcn_cidr_block</text>
</g>
<!-- [root] oci_core_vcn.ld_vcn&#45;&gt;[root] var.vcn_cidr_block -->
<g id="edge27" class="edge"><title>[root] oci_core_vcn.ld_vcn&#45;&gt;[root] var.vcn_cidr_block</title>
<path fill="none" stroke="black" d="M614.835,-71.6966C614.835,-63.9827 614.835,-54.7125 614.835,-46.1124"/>
<polygon fill="black" stroke="black" points="618.335,-46.1043 614.835,-36.1043 611.335,-46.1044 618.335,-46.1043"/>
</g>
<!-- [root] var.vcn_display_name -->
<g id="node30" class="node"><title>[root] var.vcn_display_name</title>
<ellipse fill="none" stroke="black" cx="900.835" cy="-18" rx="141.875" ry="18"/>
<text text-anchor="middle" x="900.835" y="-14.3" font-family="Times,serif" font-size="14.00">[root] var.vcn_display_name</text>
</g>
<!-- [root] oci_core_vcn.ld_vcn&#45;&gt;[root] var.vcn_display_name -->
<g id="edge28" class="edge"><title>[root] oci_core_vcn.ld_vcn&#45;&gt;[root] var.vcn_display_name</title>
<path fill="none" stroke="black" d="M684.433,-71.9656C728.243,-61.2428 784.663,-47.4336 828.91,-36.604"/>
<polygon fill="black" stroke="black" points="829.848,-39.9777 838.73,-34.2006 828.184,-33.1784 829.848,-39.9777"/>
</g>
<!-- [root] var.vcn_dns_label -->
<g id="node31" class="node"><title>[root] var.vcn_dns_label</title>
<ellipse fill="none" stroke="black" cx="1182.83" cy="-18" rx="122.379" ry="18"/>
<text text-anchor="middle" x="1182.83" y="-14.3" font-family="Times,serif" font-size="14.00">[root] var.vcn_dns_label</text>
</g>
<!-- [root] oci_core_vcn.ld_vcn&#45;&gt;[root] var.vcn_dns_label -->
<g id="edge29" class="edge"><title>[root] oci_core_vcn.ld_vcn&#45;&gt;[root] var.vcn_dns_label</title>
<path fill="none" stroke="black" d="M695.734,-73.3897C698.804,-72.9021 701.845,-72.4366 704.835,-72 858.257,-49.5914 897.831,-53.9783 1051.83,-36 1062.76,-34.7248 1074.19,-33.3309 1085.55,-31.9074"/>
<polygon fill="black" stroke="black" points="1086.01,-35.3762 1095.5,-30.6511 1085.14,-28.4313 1086.01,-35.3762"/>
</g>
<!-- [root] oci_database_db_system.my_ora_db -->
<g id="node3" class="node"><title>[root] oci_database_db_system.my_ora_db</title>
<polygon fill="none" stroke="black" points="3138.83,-252 2862.83,-252 2862.83,-216 3138.83,-216 3138.83,-252"/>
<text text-anchor="middle" x="3000.83" y="-230.3" font-family="Times,serif" font-size="14.00">oci_database_db_system.my_ora_db</text>
</g>
<!-- [root] oci_database_db_system.my_ora_db&#45;&gt;[root] oci_core_subnet.subnet1 -->
<g id="edge30" class="edge"><title>[root] oci_database_db_system.my_ora_db&#45;&gt;[root] oci_core_subnet.subnet1</title>
<path fill="none" stroke="black" d="M2862.53,-231.299C2499.94,-226.468 1526.73,-211.031 1183.36,-180.055"/>
<polygon fill="black" stroke="black" points="1183.67,-176.568 1173.39,-179.134 1183.02,-183.538 1183.67,-176.568"/>
</g>
<!-- [root] var.db_system_cpu_core_count -->
<g id="node32" class="node"><title>[root] var.db_system_cpu_core_count</title>
<ellipse fill="none" stroke="black" cx="1375.83" cy="-162" rx="184.667" ry="18"/>
<text text-anchor="middle" x="1375.83" y="-158.3" font-family="Times,serif" font-size="14.00">[root] var.db_system_cpu_core_count</text>
</g>
<!-- [root] oci_database_db_system.my_ora_db&#45;&gt;[root] var.db_system_cpu_core_count -->
<g id="edge31" class="edge"><title>[root] oci_database_db_system.my_ora_db&#45;&gt;[root] var.db_system_cpu_core_count</title>
<path fill="none" stroke="black" d="M2862.73,-230.223C2607.16,-224.566 2043.24,-209.653 1568.83,-180 1550.69,-178.866 1531.61,-177.453 1512.79,-175.93"/>
<polygon fill="black" stroke="black" points="1512.93,-172.43 1502.68,-175.099 1512.36,-179.406 1512.93,-172.43"/>
</g>
<!-- [root] var.db_system_data_storage_size_in_gb -->
<g id="node33" class="node"><title>[root] var.db_system_data_storage_size_in_gb</title>
<ellipse fill="none" stroke="black" cx="1802.83" cy="-162" rx="224.76" ry="18"/>
<text text-anchor="middle" x="1802.83" y="-158.3" font-family="Times,serif" font-size="14.00">[root] var.db_system_data_storage_size_in_gb</text>
</g>
<!-- [root] oci_database_db_system.my_ora_db&#45;&gt;[root] var.db_system_data_storage_size_in_gb -->
<g id="edge32" class="edge"><title>[root] oci_database_db_system.my_ora_db&#45;&gt;[root] var.db_system_data_storage_size_in_gb</title>
<path fill="none" stroke="black" d="M2862.7,-226.171C2675.5,-216.741 2330.82,-198.759 2036.83,-180 2015.51,-178.639 1993.09,-177.122 1970.94,-175.57"/>
<polygon fill="black" stroke="black" points="1971,-172.066 1960.78,-174.855 1970.51,-179.049 1971,-172.066"/>
</g>
<!-- [root] var.db_system_database_edition -->
<g id="node34" class="node"><title>[root] var.db_system_database_edition</title>
<ellipse fill="none" stroke="black" cx="2235.83" cy="-162" rx="190.366" ry="18"/>
<text text-anchor="middle" x="2235.83" y="-158.3" font-family="Times,serif" font-size="14.00">[root] var.db_system_database_edition</text>
</g>
<!-- [root] oci_database_db_system.my_ora_db&#45;&gt;[root] var.db_system_database_edition -->
<g id="edge33" class="edge"><title>[root] oci_database_db_system.my_ora_db&#45;&gt;[root] var.db_system_database_edition</title>
<path fill="none" stroke="black" d="M2862.74,-220.364C2725.55,-207.811 2516.18,-188.653 2377.69,-175.98"/>
<polygon fill="black" stroke="black" points="2377.7,-172.467 2367.43,-175.041 2377.07,-179.438 2377.7,-172.467"/>
</g>
<!-- [root] var.db_system_db_home_database_admin_password -->
<g id="node35" class="node"><title>[root] var.db_system_db_home_database_admin_password</title>
<ellipse fill="none" stroke="black" cx="2726.83" cy="-162" rx="282.95" ry="18"/>
<text text-anchor="middle" x="2726.83" y="-158.3" font-family="Times,serif" font-size="14.00">[root] var.db_system_db_home_database_admin_password</text>
</g>
<!-- [root] oci_database_db_system.my_ora_db&#45;&gt;[root] var.db_system_db_home_database_admin_password -->
<g id="edge34" class="edge"><title>[root] oci_database_db_system.my_ora_db&#45;&gt;[root] var.db_system_db_home_database_admin_password</title>
<path fill="none" stroke="black" d="M2934.16,-215.966C2894.12,-205.737 2843.09,-192.701 2801.68,-182.121"/>
<polygon fill="black" stroke="black" points="2802.47,-178.711 2791.92,-179.627 2800.74,-185.493 2802.47,-178.711"/>
</g>
<!-- [root] var.db_system_db_home_database_db_name -->
<g id="node36" class="node"><title>[root] var.db_system_db_home_database_db_name</title>
<ellipse fill="none" stroke="black" cx="3274.83" cy="-162" rx="246.956" ry="18"/>
<text text-anchor="middle" x="3274.83" y="-158.3" font-family="Times,serif" font-size="14.00">[root] var.db_system_db_home_database_db_name</text>
</g>
<!-- [root] oci_database_db_system.my_ora_db&#45;&gt;[root] var.db_system_db_home_database_db_name -->
<g id="edge35" class="edge"><title>[root] oci_database_db_system.my_ora_db&#45;&gt;[root] var.db_system_db_home_database_db_name</title>
<path fill="none" stroke="black" d="M3067.51,-215.966C3107.84,-205.663 3159.32,-192.51 3200.9,-181.889"/>
<polygon fill="black" stroke="black" points="3201.87,-185.253 3210.69,-179.386 3200.14,-178.47 3201.87,-185.253"/>
</g>
<!-- [root] var.db_system_db_home_database_db_workload -->
<g id="node37" class="node"><title>[root] var.db_system_db_home_database_db_workload</title>
<ellipse fill="none" stroke="black" cx="3804.83" cy="-162" rx="264.553" ry="18"/>
<text text-anchor="middle" x="3804.83" y="-158.3" font-family="Times,serif" font-size="14.00">[root] var.db_system_db_home_database_db_workload</text>
</g>
<!-- [root] oci_database_db_system.my_ora_db&#45;&gt;[root] var.db_system_db_home_database_db_workload -->
<g id="edge36" class="edge"><title>[root] oci_database_db_system.my_ora_db&#45;&gt;[root] var.db_system_db_home_database_db_workload</title>
<path fill="none" stroke="black" d="M3138.93,-216.889C3141.92,-216.585 3144.89,-216.289 3147.83,-216 3306.7,-200.411 3487.5,-186.075 3619.17,-176.255"/>
<polygon fill="black" stroke="black" points="3619.64,-179.729 3629.35,-175.496 3619.12,-172.748 3619.64,-179.729"/>
</g>
<!-- [root] var.db_system_hostname -->
<g id="node38" class="node"><title>[root] var.db_system_hostname</title>
<ellipse fill="none" stroke="black" cx="4243.83" cy="-162" rx="156.772" ry="18"/>
<text text-anchor="middle" x="4243.83" y="-158.3" font-family="Times,serif" font-size="14.00">[root] var.db_system_hostname</text>
</g>
<!-- [root] oci_database_db_system.my_ora_db&#45;&gt;[root] var.db_system_hostname -->
<g id="edge37" class="edge"><title>[root] oci_database_db_system.my_ora_db&#45;&gt;[root] var.db_system_hostname</title>
<path fill="none" stroke="black" d="M3138.91,-216.721C3141.91,-216.468 3144.89,-216.227 3147.83,-216 3560.7,-184.191 3665.78,-209.234 4078.83,-180 4094.03,-178.924 4110,-177.567 4125.76,-176.091"/>
<polygon fill="black" stroke="black" points="4126.46,-179.54 4136.08,-175.105 4125.8,-172.572 4126.46,-179.54"/>
</g>
<!-- [root] var.db_system_shape -->
<g id="node39" class="node"><title>[root] var.db_system_shape</title>
<ellipse fill="none" stroke="black" cx="4556.83" cy="-162" rx="138.375" ry="18"/>
<text text-anchor="middle" x="4556.83" y="-158.3" font-family="Times,serif" font-size="14.00">[root] var.db_system_shape</text>
</g>
<!-- [root] oci_database_db_system.my_ora_db&#45;&gt;[root] var.db_system_shape -->
<g id="edge38" class="edge"><title>[root] oci_database_db_system.my_ora_db&#45;&gt;[root] var.db_system_shape</title>
<path fill="none" stroke="black" d="M3138.91,-216.68C3141.91,-216.439 3144.89,-216.212 3147.83,-216 3707.51,-175.732 3850.16,-220.268 4409.83,-180 4423.44,-179.021 4437.73,-177.716 4451.83,-176.263"/>
<polygon fill="black" stroke="black" points="4452.48,-179.715 4462.06,-175.182 4451.74,-172.754 4452.48,-179.715"/>
</g>
<!-- [root] var.db_system_ssh_public_keys -->
<g id="node40" class="node"><title>[root] var.db_system_ssh_public_keys</title>
<ellipse fill="none" stroke="black" cx="4899.83" cy="-162" rx="186.567" ry="18"/>
<text text-anchor="middle" x="4899.83" y="-158.3" font-family="Times,serif" font-size="14.00">[root] var.db_system_ssh_public_keys</text>
</g>
<!-- [root] oci_database_db_system.my_ora_db&#45;&gt;[root] var.db_system_ssh_public_keys -->
<g id="edge39" class="edge"><title>[root] oci_database_db_system.my_ora_db&#45;&gt;[root] var.db_system_ssh_public_keys</title>
<path fill="none" stroke="black" d="M3138.91,-216.658C3141.91,-216.424 3144.89,-216.204 3147.83,-216 3837.92,-168.216 4013.13,-217.906 4703.83,-180 4722.94,-178.951 4743.08,-177.547 4762.87,-175.994"/>
<polygon fill="black" stroke="black" points="4763.18,-179.48 4772.87,-175.194 4762.62,-172.502 4763.18,-179.48"/>
</g>
<!-- [root] meta.count&#45;boundary (count boundary fixup) -->
<g id="node5" class="node"><title>[root] meta.count&#45;boundary (count boundary fixup)</title>
<ellipse fill="none" stroke="black" cx="6158.83" cy="-306" rx="247.756" ry="18"/>
<text text-anchor="middle" x="6158.83" y="-302.3" font-family="Times,serif" font-size="14.00">[root] meta.count&#45;boundary (count boundary fixup)</text>
</g>
<!-- [root] meta.count&#45;boundary (count boundary fixup)&#45;&gt;[root] oci_database_db_system.my_ora_db -->
<g id="edge1" class="edge"><title>[root] meta.count&#45;boundary (count boundary fixup)&#45;&gt;[root] oci_database_db_system.my_ora_db</title>
<path fill="none" stroke="black" d="M5916.8,-302.099C5257.91,-294.013 3461.05,-270.628 3148.96,-251.997"/>
<polygon fill="black" stroke="black" points="3149.1,-248.499 3138.9,-251.364 3148.66,-255.485 3149.1,-248.499"/>
</g>
<!-- [root] var.BootStrapFile -->
<g id="node6" class="node"><title>[root] var.BootStrapFile</title>
<ellipse fill="none" stroke="black" cx="3277.83" cy="-234" rx="120.779" ry="18"/>
<text text-anchor="middle" x="3277.83" y="-230.3" font-family="Times,serif" font-size="14.00">[root] var.BootStrapFile</text>
</g>
<!-- [root] meta.count&#45;boundary (count boundary fixup)&#45;&gt;[root] var.BootStrapFile -->
<g id="edge2" class="edge"><title>[root] meta.count&#45;boundary (count boundary fixup)&#45;&gt;[root] var.BootStrapFile</title>
<path fill="none" stroke="black" d="M5917.63,-301.885C5292.93,-293.598 3653.76,-270.392 3407.83,-252 3395.75,-251.096 3383.06,-249.832 3370.55,-248.397"/>
<polygon fill="black" stroke="black" points="3370.91,-244.916 3360.57,-247.214 3370.08,-251.867 3370.91,-244.916"/>
</g>
<!-- [root] var.DBSize -->
<g id="node7" class="node"><title>[root] var.DBSize</title>
<ellipse fill="none" stroke="black" cx="3506.83" cy="-234" rx="89.8845" ry="18"/>
<text text-anchor="middle" x="3506.83" y="-230.3" font-family="Times,serif" font-size="14.00">[root] var.DBSize</text>
</g>
<!-- [root] meta.count&#45;boundary (count boundary fixup)&#45;&gt;[root] var.DBSize -->
<g id="edge3" class="edge"><title>[root] meta.count&#45;boundary (count boundary fixup)&#45;&gt;[root] var.DBSize</title>
<path fill="none" stroke="black" d="M5916.93,-302.064C5324.04,-294.569 3830.42,-273.781 3604.83,-252 3596.22,-251.168 3587.22,-250.01 3578.31,-248.685"/>
<polygon fill="black" stroke="black" points="3578.75,-245.211 3568.33,-247.128 3577.67,-252.127 3578.75,-245.211"/>
</g>
<!-- [root] var.NumInstances -->
<g id="node8" class="node"><title>[root] var.NumInstances</title>
<ellipse fill="none" stroke="black" cx="3738.83" cy="-234" rx="124.578" ry="18"/>
<text text-anchor="middle" x="3738.83" y="-230.3" font-family="Times,serif" font-size="14.00">[root] var.NumInstances</text>
</g>
<!-- [root] meta.count&#45;boundary (count boundary fixup)&#45;&gt;[root] var.NumInstances -->
<g id="edge4" class="edge"><title>[root] meta.count&#45;boundary (count boundary fixup)&#45;&gt;[root] var.NumInstances</title>
<path fill="none" stroke="black" d="M5915.56,-302.534C5410.65,-296.894 4263.51,-281.233 3872.83,-252 3860.38,-251.068 3847.31,-249.788 3834.41,-248.345"/>
<polygon fill="black" stroke="black" points="3834.46,-244.827 3824.12,-247.156 3833.66,-251.781 3834.46,-244.827"/>
</g>
<!-- [root] var.NumIscsiVolumesPerInstance -->
<g id="node9" class="node"><title>[root] var.NumIscsiVolumesPerInstance</title>
<ellipse fill="none" stroke="black" cx="4077.83" cy="-234" rx="196.065" ry="18"/>
<text text-anchor="middle" x="4077.83" y="-230.3" font-family="Times,serif" font-size="14.00">[root] var.NumIscsiVolumesPerInstance</text>
</g>
<!-- [root] meta.count&#45;boundary (count boundary fixup)&#45;&gt;[root] var.NumIscsiVolumesPerInstance -->
<g id="edge5" class="edge"><title>[root] meta.count&#45;boundary (count boundary fixup)&#45;&gt;[root] var.NumIscsiVolumesPerInstance</title>
<path fill="none" stroke="black" d="M5916.19,-302.366C5558.47,-297.525 4868.62,-284.539 4282.83,-252 4263.07,-250.902 4242.25,-249.483 4221.77,-247.932"/>
<polygon fill="black" stroke="black" points="4221.98,-244.439 4211.74,-247.162 4221.45,-251.418 4221.98,-244.439"/>
</g>
<!-- [root] var.NumParavirtualizedVolumesPerInstance -->
<g id="node10" class="node"><title>[root] var.NumParavirtualizedVolumesPerInstance</title>
<ellipse fill="none" stroke="black" cx="4536.83" cy="-234" rx="245.057" ry="18"/>
<text text-anchor="middle" x="4536.83" y="-230.3" font-family="Times,serif" font-size="14.00">[root] var.NumParavirtualizedVolumesPerInstance</text>
</g>
<!-- [root] meta.count&#45;boundary (count boundary fixup)&#45;&gt;[root] var.NumParavirtualizedVolumesPerInstance -->
<g id="edge6" class="edge"><title>[root] meta.count&#45;boundary (count boundary fixup)&#45;&gt;[root] var.NumParavirtualizedVolumesPerInstance</title>
<path fill="none" stroke="black" d="M5935.12,-298.263C5664.15,-289.656 5193.88,-273.291 4790.83,-252 4766.88,-250.735 4741.67,-249.242 4716.81,-247.675"/>
<polygon fill="black" stroke="black" points="4716.76,-244.165 4706.56,-247.023 4716.31,-251.15 4716.76,-244.165"/>
</g>
<!-- [root] var.availability_domain -->
<g id="node11" class="node"><title>[root] var.availability_domain</title>
<ellipse fill="none" stroke="black" cx="4946.83" cy="-234" rx="146.774" ry="18"/>
<text text-anchor="middle" x="4946.83" y="-230.3" font-family="Times,serif" font-size="14.00">[root] var.availability_domain</text>
</g>
<!-- [root] meta.count&#45;boundary (count boundary fixup)&#45;&gt;[root] var.availability_domain -->
<g id="edge7" class="edge"><title>[root] meta.count&#45;boundary (count boundary fixup)&#45;&gt;[root] var.availability_domain</title>
<path fill="none" stroke="black" d="M5938.9,-297.705C5725.12,-289.731 5391.38,-274.943 5102.83,-252 5088.6,-250.868 5073.66,-249.488 5058.89,-248.007"/>
<polygon fill="black" stroke="black" points="5059.01,-244.501 5048.71,-246.968 5058.3,-251.465 5059.01,-244.501"/>
</g>
<!-- [root] var.compartment_ocid -->
<g id="node12" class="node"><title>[root] var.compartment_ocid</title>
<ellipse fill="none" stroke="black" cx="5255.83" cy="-234" rx="143.775" ry="18"/>
<text text-anchor="middle" x="5255.83" y="-230.3" font-family="Times,serif" font-size="14.00">[root] var.compartment_ocid</text>
</g>
<!-- [root] meta.count&#45;boundary (count boundary fixup)&#45;&gt;[root] var.compartment_ocid -->
<g id="edge8" class="edge"><title>[root] meta.count&#45;boundary (count boundary fixup)&#45;&gt;[root] var.compartment_ocid</title>
<path fill="none" stroke="black" d="M5973.74,-293.993C5821.84,-284.463 5601.23,-269.48 5408.83,-252 5395.34,-250.774 5381.19,-249.367 5367.18,-247.899"/>
<polygon fill="black" stroke="black" points="5367.32,-244.394 5357.01,-246.82 5366.58,-251.355 5367.32,-244.394"/>
</g>
<!-- [root] var.db_system_db_home_database_backup_tde_password -->
<g id="node13" class="node"><title>[root] var.db_system_db_home_database_backup_tde_password</title>
<ellipse fill="none" stroke="black" cx="5725.83" cy="-234" rx="308.145" ry="18"/>
<text text-anchor="middle" x="5725.83" y="-230.3" font-family="Times,serif" font-size="14.00">[root] var.db_system_db_home_database_backup_tde_password</text>
</g>
<!-- [root] meta.count&#45;boundary (count boundary fixup)&#45;&gt;[root] var.db_system_db_home_database_backup_tde_password -->
<g id="edge9" class="edge"><title>[root] meta.count&#45;boundary (count boundary fixup)&#45;&gt;[root] var.db_system_db_home_database_backup_tde_password</title>
<path fill="none" stroke="black" d="M6062.2,-289.378C5994.97,-278.509 5905.22,-264 5835.34,-252.703"/>
<polygon fill="black" stroke="black" points="5835.61,-249.201 5825.18,-251.06 5834.49,-256.111 5835.61,-249.201"/>
</g>
<!-- [root] var.fingerprint -->
<g id="node14" class="node"><title>[root] var.fingerprint</title>
<ellipse fill="none" stroke="black" cx="6158.83" cy="-234" rx="106.681" ry="18"/>
<text text-anchor="middle" x="6158.83" y="-230.3" font-family="Times,serif" font-size="14.00">[root] var.fingerprint</text>
</g>
<!-- [root] meta.count&#45;boundary (count boundary fixup)&#45;&gt;[root] var.fingerprint -->
<g id="edge10" class="edge"><title>[root] meta.count&#45;boundary (count boundary fixup)&#45;&gt;[root] var.fingerprint</title>
<path fill="none" stroke="black" d="M6158.83,-287.697C6158.83,-279.983 6158.83,-270.712 6158.83,-262.112"/>
<polygon fill="black" stroke="black" points="6162.33,-262.104 6158.83,-252.104 6155.33,-262.104 6162.33,-262.104"/>
</g>
<!-- [root] var.instance_image_ocid -->
<g id="node15" class="node"><title>[root] var.instance_image_ocid</title>
<ellipse fill="none" stroke="black" cx="6436.83" cy="-234" rx="153.273" ry="18"/>
<text text-anchor="middle" x="6436.83" y="-230.3" font-family="Times,serif" font-size="14.00">[root] var.instance_image_ocid</text>
</g>
<!-- [root] meta.count&#45;boundary (count boundary fixup)&#45;&gt;[root] var.instance_image_ocid -->
<g id="edge11" class="edge"><title>[root] meta.count&#45;boundary (count boundary fixup)&#45;&gt;[root] var.instance_image_ocid</title>
<path fill="none" stroke="black" d="M6224.01,-288.588C6266.3,-277.941 6321.42,-264.061 6364.97,-253.095"/>
<polygon fill="black" stroke="black" points="6366.08,-256.424 6374.93,-250.588 6364.38,-249.636 6366.08,-256.424"/>
</g>
<!-- [root] var.instance_shape -->
<g id="node16" class="node"><title>[root] var.instance_shape</title>
<ellipse fill="none" stroke="black" cx="6735.83" cy="-234" rx="128.077" ry="18"/>
<text text-anchor="middle" x="6735.83" y="-230.3" font-family="Times,serif" font-size="14.00">[root] var.instance_shape</text>
</g>
<!-- [root] meta.count&#45;boundary (count boundary fixup)&#45;&gt;[root] var.instance_shape -->
<g id="edge12" class="edge"><title>[root] meta.count&#45;boundary (count boundary fixup)&#45;&gt;[root] var.instance_shape</title>
<path fill="none" stroke="black" d="M6281.66,-290.325C6369.91,-279.751 6491.72,-265.097 6598.83,-252 6609.97,-250.639 6621.61,-249.207 6633.2,-247.777"/>
<polygon fill="black" stroke="black" points="6633.86,-251.221 6643.35,-246.521 6633,-244.274 6633.86,-251.221"/>
</g>
<!-- [root] var.private_key_path -->
<g id="node17" class="node"><title>[root] var.private_key_path</title>
<ellipse fill="none" stroke="black" cx="7018.83" cy="-234" rx="137.276" ry="18"/>
<text text-anchor="middle" x="7018.83" y="-230.3" font-family="Times,serif" font-size="14.00">[root] var.private_key_path</text>
</g>
<!-- [root] meta.count&#45;boundary (count boundary fixup)&#45;&gt;[root] var.private_key_path -->
<g id="edge13" class="edge"><title>[root] meta.count&#45;boundary (count boundary fixup)&#45;&gt;[root] var.private_key_path</title>
<path fill="none" stroke="black" d="M6339.48,-293.686C6483.93,-284.134 6691.56,-269.274 6872.83,-252 6885.59,-250.785 6898.95,-249.392 6912.2,-247.939"/>
<polygon fill="black" stroke="black" points="6912.75,-251.4 6922.3,-246.818 6911.97,-244.443 6912.75,-251.4"/>
</g>
<!-- [root] var.region -->
<g id="node18" class="node"><title>[root] var.region</title>
<ellipse fill="none" stroke="black" cx="7260.83" cy="-234" rx="86.3847" ry="18"/>
<text text-anchor="middle" x="7260.83" y="-230.3" font-family="Times,serif" font-size="14.00">[root] var.region</text>
</g>
<!-- [root] meta.count&#45;boundary (count boundary fixup)&#45;&gt;[root] var.region -->
<g id="edge14" class="edge"><title>[root] meta.count&#45;boundary (count boundary fixup)&#45;&gt;[root] var.region</title>
<path fill="none" stroke="black" d="M6395.56,-300.714C6599.85,-295.061 6902.56,-282.016 7164.83,-252 7173.11,-251.052 7181.76,-249.841 7190.32,-248.501"/>
<polygon fill="black" stroke="black" points="7191.01,-251.936 7200.31,-246.878 7189.88,-245.027 7191.01,-251.936"/>
</g>
<!-- [root] var.ssh_private_key -->
<g id="node19" class="node"><title>[root] var.ssh_private_key</title>
<ellipse fill="none" stroke="black" cx="7496.83" cy="-234" rx="131.877" ry="18"/>
<text text-anchor="middle" x="7496.83" y="-230.3" font-family="Times,serif" font-size="14.00">[root] var.ssh_private_key</text>
</g>
<!-- [root] meta.count&#45;boundary (count boundary fixup)&#45;&gt;[root] var.ssh_private_key -->
<g id="edge15" class="edge"><title>[root] meta.count&#45;boundary (count boundary fixup)&#45;&gt;[root] var.ssh_private_key</title>
<path fill="none" stroke="black" d="M6391.99,-299.9C6633.47,-293.394 7021.54,-279.514 7355.83,-252 7368.66,-250.944 7382.12,-249.612 7395.42,-248.161"/>
<polygon fill="black" stroke="black" points="7395.99,-251.619 7405.54,-247.03 7395.21,-244.662 7395.99,-251.619"/>
</g>
<!-- [root] var.ssh_public_key -->
<g id="node20" class="node"><title>[root] var.ssh_public_key</title>
<ellipse fill="none" stroke="black" cx="7773.83" cy="-234" rx="127.277" ry="18"/>
<text text-anchor="middle" x="7773.83" y="-230.3" font-family="Times,serif" font-size="14.00">[root] var.ssh_public_key</text>
</g>
<!-- [root] meta.count&#45;boundary (count boundary fixup)&#45;&gt;[root] var.ssh_public_key -->
<g id="edge16" class="edge"><title>[root] meta.count&#45;boundary (count boundary fixup)&#45;&gt;[root] var.ssh_public_key</title>
<path fill="none" stroke="black" d="M6402.93,-302.865C6696.47,-298.771 7203.88,-286.828 7637.83,-252 7650.19,-251.009 7663.14,-249.717 7675.94,-248.289"/>
<polygon fill="black" stroke="black" points="7676.63,-251.733 7686.16,-247.117 7675.83,-244.779 7676.63,-251.733"/>
</g>
<!-- [root] var.tag_namespace_description -->
<g id="node21" class="node"><title>[root] var.tag_namespace_description</title>
<ellipse fill="none" stroke="black" cx="8105.83" cy="-234" rx="186.567" ry="18"/>
<text text-anchor="middle" x="8105.83" y="-230.3" font-family="Times,serif" font-size="14.00">[root] var.tag_namespace_description</text>
</g>
<!-- [root] meta.count&#45;boundary (count boundary fixup)&#45;&gt;[root] var.tag_namespace_description -->
<g id="edge17" class="edge"><title>[root] meta.count&#45;boundary (count boundary fixup)&#45;&gt;[root] var.tag_namespace_description</title>
<path fill="none" stroke="black" d="M6400.49,-301.981C6738.43,-296.781 7371.3,-283.48 7909.83,-252 7928.64,-250.901 7948.43,-249.487 7967.92,-247.944"/>
<polygon fill="black" stroke="black" points="7968.39,-251.418 7978.07,-247.127 7967.83,-244.44 7968.39,-251.418"/>
</g>
<!-- [root] var.tag_namespace_name -->
<g id="node22" class="node"><title>[root] var.tag_namespace_name</title>
<ellipse fill="none" stroke="black" cx="8469.83" cy="-234" rx="159.472" ry="18"/>
<text text-anchor="middle" x="8469.83" y="-230.3" font-family="Times,serif" font-size="14.00">[root] var.tag_namespace_name</text>
</g>
<!-- [root] meta.count&#45;boundary (count boundary fixup)&#45;&gt;[root] var.tag_namespace_name -->
<g id="edge18" class="edge"><title>[root] meta.count&#45;boundary (count boundary fixup)&#45;&gt;[root] var.tag_namespace_name</title>
<path fill="none" stroke="black" d="M6406.18,-304.99C6805.39,-303.601 7616.32,-295.098 8301.83,-252 8317.7,-251.002 8334.39,-249.664 8350.84,-248.175"/>
<polygon fill="black" stroke="black" points="8351.4,-251.637 8361.04,-247.229 8350.76,-244.667 8351.4,-251.637"/>
</g>
<!-- [root] var.tenancy_ocid -->
<g id="node23" class="node"><title>[root] var.tenancy_ocid</title>
<ellipse fill="none" stroke="black" cx="8765.83" cy="-234" rx="118.079" ry="18"/>
<text text-anchor="middle" x="8765.83" y="-230.3" font-family="Times,serif" font-size="14.00">[root] var.tenancy_ocid</text>
</g>
<!-- [root] meta.count&#45;boundary (count boundary fixup)&#45;&gt;[root] var.tenancy_ocid -->
<g id="edge19" class="edge"><title>[root] meta.count&#45;boundary (count boundary fixup)&#45;&gt;[root] var.tenancy_ocid</title>
<path fill="none" stroke="black" d="M6403.71,-303.216C6940.96,-298.738 8209.29,-284.937 8637.83,-252 8649.71,-251.087 8662.17,-249.821 8674.46,-248.388"/>
<polygon fill="black" stroke="black" points="8675.21,-251.822 8684.72,-247.149 8674.37,-244.873 8675.21,-251.822"/>
</g>
<!-- [root] var.user_ocid -->
<g id="node24" class="node"><title>[root] var.user_ocid</title>
<ellipse fill="none" stroke="black" cx="9003.83" cy="-234" rx="101.282" ry="18"/>
<text text-anchor="middle" x="9003.83" y="-230.3" font-family="Times,serif" font-size="14.00">[root] var.user_ocid</text>
</g>
<!-- [root] meta.count&#45;boundary (count boundary fixup)&#45;&gt;[root] var.user_ocid -->
<g id="edge20" class="edge"><title>[root] meta.count&#45;boundary (count boundary fixup)&#45;&gt;[root] var.user_ocid</title>
<path fill="none" stroke="black" d="M6405.73,-304.408C6984.19,-302.34 8414.29,-293.101 8892.83,-252 8902.99,-251.128 8913.63,-249.902 8924.13,-248.505"/>
<polygon fill="black" stroke="black" points="8924.71,-251.958 8934.13,-247.118 8923.75,-245.024 8924.71,-251.958"/>
</g>
<!-- [root] provider.oci (close) -->
<g id="node41" class="node"><title>[root] provider.oci (close)</title>
<ellipse fill="none" stroke="black" cx="4382.83" cy="-306" rx="128.077" ry="18"/>
<text text-anchor="middle" x="4382.83" y="-302.3" font-family="Times,serif" font-size="14.00">[root] provider.oci (close)</text>
</g>
<!-- [root] provider.oci (close)&#45;&gt;[root] oci_database_db_system.my_ora_db -->
<g id="edge40" class="edge"><title>[root] provider.oci (close)&#45;&gt;[root] oci_database_db_system.my_ora_db</title>
<path fill="none" stroke="black" d="M4256.87,-302.598C4035.07,-297.703 3560.18,-284.255 3148.92,-252.05"/>
<polygon fill="black" stroke="black" points="3149.16,-248.558 3138.91,-251.262 3148.61,-255.537 3149.16,-248.558"/>
</g>
<!-- [root] root -->
<g id="node42" class="node"><title>[root] root</title>
<ellipse fill="none" stroke="black" cx="5270.83" cy="-378" rx="58.4896" ry="18"/>
<text text-anchor="middle" x="5270.83" y="-374.3" font-family="Times,serif" font-size="14.00">[root] root</text>
</g>
<!-- [root] root&#45;&gt;[root] meta.count&#45;boundary (count boundary fixup) -->
<g id="edge41" class="edge"><title>[root] root&#45;&gt;[root] meta.count&#45;boundary (count boundary fixup)</title>
<path fill="none" stroke="black" d="M5326.72,-372.595C5456.83,-362.338 5784.36,-336.519 5987.54,-320.503"/>
<polygon fill="black" stroke="black" points="5988.03,-323.976 5997.72,-319.7 5987.48,-316.997 5988.03,-323.976"/>
</g>
<!-- [root] root&#45;&gt;[root] provider.oci (close) -->
<g id="edge42" class="edge"><title>[root] root&#45;&gt;[root] provider.oci (close)</title>
<path fill="none" stroke="black" d="M5214.95,-372.595C5072.91,-361.398 4695.61,-331.656 4501.65,-316.366"/>
<polygon fill="black" stroke="black" points="4501.66,-312.856 4491.41,-315.559 4501.11,-319.834 4501.66,-312.856"/>
</g>
</g>
</svg>
